<svg xmlns="http://www.w3.org/2000/svg" xmlns:xlink="http://www.w3.org/1999/xlink" width="744.3" height="115.6"><style type="text/css"><![CDATA[
	.st0{opacity:0.3;clip-path:url(#SVGID_4_);fill:#FFFFFF;}
	.st1{fill:#B7B7B7;}
	.st2{fill:#91D849;}
	.st3{clip-path:url(#SVGID_2_);fill:#8FB7F7;}
	.st4{opacity:0.37;fill:#FFFFFF;}
]]></style><defs><path id="SVGID_1_" d="M107.1 53.5c0 29.6-24 53.5-53.5 53.5-29.6.1-53.6-23.9-53.6-53.5 0-29.5 24-53.5 53.5-53.5 29.6 0 53.6 24 53.6 53.5z"/></defs><clipPath id="SVGID_2_"><use xlink:href="#SVGID_1_" overflow="visible"/></clipPath><path class="st3" d="M92.6 61.6c-4.5 21.6-25.6 35.5-47.2 31-21.5-4.4-35.4-25.6-31-47.1 4.5-21.6 25.6-35.5 47.2-31.1 21.6 4.5 35.5 25.6 31 47.2z"/><polygon class="st3" points="53.5,-15.8 66.8,21.5 102.6,4.5 85.6,40.3 122.9,53.5 85.6,66.8 102.6,102.6 66.8,85.6 53.5,122.9 40.3,85.6 4.5,102.6 21.5,66.8 -15.8,53.5 21.5,40.3 4.5,4.5 40.3,21.5"/><defs><path id="SVGID_3_" d="M106.8 59.3c.2-1.9.3-3.8.3-5.7 0-1.9-.1-3.8-.3-5.7l-14.9-5.3c-.8-2.9-2-5.7-3.4-8.3l6.7-14.3c-2.4-3-5.1-5.7-8.1-8.1l-14.2 6.8c-2.6-1.4-5.4-2.6-8.3-3.4l-5.3-15c-1.9-.2-3.8-.3-5.8-.3-1.9 0-3.8.1-5.7.3l-5.3 14.9c-2.9.8-5.7 2-8.3 3.4l-14.2-6.7c-3 2.4-5.7 5.1-8.1 8.1l6.8 14.2c-1.4 2.6-2.6 5.4-3.4 8.3l-15 5.3c-.2 1.9-.3 3.8-.3 5.7 0 1.9.1 3.8.3 5.7l14.9 5.3c.8 2.9 2 5.7 3.5 8.3l-6.8 14.3c2.4 3 5.1 5.7 8.1 8.1l14.2-6.8c2.6 1.4 5.4 2.6 8.3 3.4l5.3 14.9c1.9.2 3.8.3 5.7.3 1.9 0 3.8-.1 5.7-.3l5.3-14.9c2.9-.8 5.7-2 8.3-3.5l14.3 6.8c3-2.4 5.7-5.1 8.1-8.1l-6.8-14.2c1.4-2.6 2.6-5.4 3.4-8.3l15-5.2z"/></defs><clipPath id="SVGID_4_"><use xlink:href="#SVGID_3_" overflow="visible"/></clipPath><path class="st0" d="M107.1 53.5c0 19.1-14.9 34.6-33.3 34.6s-33.3-15.4-33.3-34.5c-.1-19.1 14.8-34.6 33.2-34.6 18.4 0 33.4 15.4 33.4 34.5z"/><path class="st1" d="M173 12c7.5 0 13.1 2.3 18.2 7 .7.6.7 1.5.1 2.1l-5.9 6.1c-.5.5-1.4.5-1.9 0-2.8-2.5-6.5-3.8-10.2-3.8-8.5 0-14.7 7.1-14.7 15.5 0 8.3 6.3 15.3 14.8 15.3 3.5 0 7.4-1.3 10.1-3.6.5-.5 1.5-.5 2 .1l5.9 6.2c.5.5.5 1.5-.1 2-5.1 5-11.6 7.3-18.3 7.3-15 0-27.2-12-27.2-27s12.2-27.2 27.2-27.2z"/><path class="st2" d="M193.6 63.4l23.5-50.6c.2-.5.8-.8 1.3-.8h.8c.5 0 1.1.4 1.3.8l23.5 50.6c.5 1-.2 2-1.3 2h-8.3c-1.4 0-2-.5-2.6-1.9l-2.7-5.9h-20.5l-2.7 6c-.4.9-1.2 1.8-2.7 1.8h-8.3c-1.2 0-1.8-1-1.3-2zm30.9-16.1l-5.7-12.4h-.1l-5.7 12.4h11.5z"/><path class="st2" d="M250.1 14.1c0-.8.6-1.4 1.4-1.4h9c.8 0 1.4.7 1.4 1.4v40.2h17.9c.8 0 1.4.7 1.4 1.4v8.2c0 .8-.6 1.4-1.4 1.4h-28.3c-.8 0-1.4-.7-1.4-1.4v-49.8z"/><path class="st2" d="M288.6 14.1c0-.8.6-1.4 1.4-1.4h9c.8 0 1.4.7 1.4 1.4v40.2h17.9c.8 0 1.4.7 1.4 1.4v8.2c0 .8-.6 1.4-1.4 1.4h-28.3c-.8 0-1.4-.7-1.4-1.4v-49.8z"/><path class="st2" d="M327 14.1c0-.8.7-1.4 1.4-1.4h9c.8 0 1.4.7 1.4 1.4v49.8c0 .8-.7 1.4-1.4 1.4h-9c-.8 0-1.4-.7-1.4-1.4v-49.8z"/><path class="st2" d="M351.8 13.3c0-.8.7-1.4 1.4-1.4h1.9l30 28.9h.1v-26.7c0-.8.6-1.4 1.4-1.4h9c.8 0 1.4.7 1.4 1.4v50.6c0 .8-.7 1.4-1.4 1.4h-1.2c-.2 0-.8-.2-1-.4l-29.7-29.9h-.1v28.1c0 .8-.6 1.4-1.4 1.4h-9c-.8 0-1.4-.7-1.4-1.4v-50.6z"/><path class="st1" d="M403.2 63.4l23.5-50.6c.2-.5.8-.8 1.3-.8h.8c.5 0 1.1.4 1.3.8l23.5 50.6c.5 1-.2 2-1.3 2h-8.3c-1.4 0-2-.5-2.6-1.9l-2.7-5.9h-20.5l-2.7 6c-.4.9-1.2 1.8-2.7 1.8h-8.3c-1.1 0-1.7-1-1.3-2zm30.9-16.1l-5.7-12.4h-.1l-5.6 12.4h11.4z"/><path class="st1" d="M459.8 14.1c0-.8.6-1.4 1.4-1.4h22.5c9 0 16.4 7.3 16.4 16.2 0 6.9-4.6 12.5-11.1 15.1l10.3 19.1c.5 1 0 2.2-1.3 2.2h-10c-.6 0-1.1-.4-1.2-.7l-10-19.9h-5.2v19.2c0 .8-.7 1.4-1.4 1.4h-9c-.8 0-1.4-.7-1.4-1.4v-49.8zm22.9 21.1c3.1 0 5.7-2.9 5.7-6s-2.6-5.7-5.7-5.7h-11.1v11.7h11.1z"/><path class="st1" d="M519.7 40l-16.6-25.1c-.6-1 0-2.2 1.2-2.2h9.8c.6 0 1 .4 1.2.7l10.5 15.4 10.5-15.4c.2-.3.5-.7 1.2-.7h9.8c1.2 0 1.8 1.2 1.2 2.2l-16.9 25v24c0 .8-.7 1.4-1.4 1.4h-9c-.8 0-1.4-.7-1.4-1.4v-23.9z"/><path class="st1" d="M564.2 63.4l23.5-50.6c.2-.5.8-.8 1.3-.8h.8c.5 0 1.1.4 1.3.8l23.5 50.6c.5 1-.2 2-1.3 2h-8.3c-1.4 0-2-.5-2.6-1.9l-2.7-5.9h-20.5l-2.7 6c-.4.9-1.2 1.8-2.7 1.8h-8.3c-1.1 0-1.7-1-1.3-2zm30.9-16.1l-5.7-12.4h-.1l-5.6 12.4h11.4z"/><path class="st1" d="M620.8 14.1c0-.8.6-1.4 1.4-1.4h22.5c9 0 16.4 7.3 16.4 16.2 0 6.9-4.6 12.5-11.1 15.1l10.3 19.1c.5 1 0 2.2-1.3 2.2h-10c-.6 0-1.1-.4-1.2-.7l-10-19.9h-5.2v19.2c0 .8-.7 1.4-1.4 1.4h-9c-.8 0-1.4-.7-1.4-1.4v-49.8zm22.9 21.1c3.1 0 5.7-2.9 5.7-6s-2.6-5.7-5.7-5.7h-11.1v11.7h11.1z"/><path class="st1" d="M678 23.8h-10.8c-.8 0-1.4-.7-1.4-1.4v-8.2c0-.8.6-1.4 1.4-1.4h33.4c.8 0 1.4.7 1.4 1.4v8.2c0 .8-.6 1.4-1.4 1.4h-10.8v40.2c0 .8-.7 1.4-1.4 1.4h-9c-.8 0-1.4-.7-1.4-1.4v-40.2z"/><path class="st1" d="M706.6 58.2l3.5-6.2c.6-1 2-.8 2.6-.5.3.2 5.7 4.1 10.7 4.1 3 0 5.2-1.9 5.2-4.5 0-3.2-2.6-5.6-7.7-7.6-6.5-2.6-14.6-7.6-14.6-16.6 0-7.4 5.8-15 17.4-15 7.8 0 13.8 4 16.1 5.6.9.5.8 1.9.5 2.4l-3.8 5.8c-.5.8-1.9 1.5-2.6 1-.7-.4-6.2-4.5-10.8-4.5-2.7 0-4.7 1.8-4.7 3.8 0 2.8 2.3 4.9 8.2 7.3 5.9 2.3 15.2 6.9 15.2 17.2 0 7.7-6.7 15.6-17.8 15.6-9.8 0-15.2-4.1-16.9-5.8-.9-.7-1.1-1-.5-2.1z"/><polygon class="st2" points="65.3,115.6 105.2,17.6 170.1,101.2"/><polygon class="st4" points="92.5,111.9 111.4,65.4 142.2,105"/><path class="st1" d="M401.8 77.1c0-.4.3-.7.7-.7h1.1c.4 0 .7.3.7.7v10.8s1.5-.9 3.9-.9c4.4 0 7 3.4 7 7.6 0 4.2-2.9 7.7-6.6 7.7-2.7 0-4.5-1.9-4.5-1.9l-.2 1c-.1.3-.3.6-.6.6h-.8c-.4 0-.7-.3-.7-.7v-24.2zm6.6 22.9c2.7 0 4.3-2.5 4.3-5.4 0-2.9-1.6-5.2-4.8-5.2-2 0-3.5.9-3.5.9v7.3s1.3 2.4 4 2.4z"/><path class="st1" d="M419.1 88.2c-.2-.5 0-.8.5-.8h1.6c.3 0 .5.2.6.4l5.4 11.2 5.1-11.2c.1-.2.4-.4.6-.4h1.4c.5 0 .8.4.5.8l-11.2 24.3c-.1.2-.4.4-.6.4h-1.4c-.5 0-.8-.4-.6-.9l4.7-10.1-6.6-13.7z"/><path class="st1" d="M447.6 101l11.1-24.6c.1-.2.3-.4.6-.4h.4c.3 0 .5.2.6.4l11 24.6c.2.5-.1.9-.6.9h-1.5c-.3 0-.5-.2-.6-.4l-2.7-6h-13l-2.7 6c-.1.2-.3.4-.6.4h-1.5c-.4.1-.7-.4-.5-.9zm17.4-7.7l-5.3-12h-.3l-5.3 12h10.9z"/><path class="st1" d="M477.2 77.1c0-.4.3-.7.7-.7h1.4c.4 0 .7.3.7.7v22.4h10.5c.4 0 .7.3.7.7v1.1c0 .4-.3.7-.7.7h-12.6c-.4 0-.7-.3-.7-.7v-24.2z"/><path class="st1" d="M496.9 77.1c0-.4.3-.7.7-.7h1.4c.4 0 .7.3.7.7v22.4h10.5c.4 0 .7.3.7.7v1.1c0 .4-.3.7-.7.7h-12.6c-.4 0-.7-.3-.7-.7v-24.2z"/><path class="st1" d="M516.7 77.1c0-.4.3-.7.7-.7h1.5c.4 0 .7.3.7.7v24.2c0 .4-.3.7-.7.7h-1.5c-.4 0-.7-.3-.7-.7v-24.2z"/><path class="st1" d="M528.8 76.7c0-.4.3-.7.7-.7h.9l16.5 20.5h.1v-19.4c0-.4.3-.7.7-.7h1.3c.4 0 .7.3.7.7v24.6c0 .4-.3.7-.7.7h-.7l-16.8-20.9v19.9c0 .4-.3.7-.7.7h-1.3c-.4 0-.7-.3-.7-.7v-24.7z"/><path class="st1" d="M568.8 77.1c0-.4.3-.7.7-.7h9.5c4.4 0 8 3.4 8 7.8 0 3.4-2.2 6.2-5.4 7.5l5 9.3c.3.5 0 1.1-.6 1.1h-1.9c-.3 0-.5-.2-.6-.3l-4.9-9.7h-7v9.3c0 .4-.3.7-.7.7h-1.4c-.4 0-.7-.3-.7-.7v-24.3zm10 12.5c2.8 0 5.3-2.3 5.3-5.3 0-2.8-2.4-5.2-5.3-5.2h-7.1v10.5h7.1z"/><path class="st1" d="M594.8 77.1c0-.4.3-.7.7-.7h14.4c.4 0 .7.3.7.7v1.1c0 .4-.3.7-.7.7h-12.3v8.9h10.5c.4 0 .7.3.7.7v1.1c0 .4-.3.7-.7.7h-10.5v9.3h12.3c.4 0 .7.3.7.7v1.1c0 .4-.3.7-.7.7h-14.4c-.4 0-.7-.3-.7-.7v-24.3z"/><path class="st1" d="M616.6 98.1c.2-.2.4-.5.5-.7.4-.5.8-.8 1.3-.3.3.2 2.9 2.8 6.2 2.8 3 0 4.9-1.9 4.9-4 0-2.5-2.2-4-6.4-5.8-4-1.8-6.4-3.4-6.4-7.6 0-2.5 2-6.5 7.8-6.5 3.6 0 6.2 1.9 6.2 1.9.2.1.7.5.2 1.2l-.4.7c-.3.5-.7.7-1.3.3-.3-.1-2.6-1.7-4.8-1.7-3.9 0-5 2.5-5 4 0 2.4 1.9 3.9 4.9 5.2 4.9 2 8.1 3.9 8.1 8.1 0 3.8-3.6 6.6-7.9 6.6-4.3 0-7.2-2.5-7.7-3-.3-.2-.6-.5-.2-1.2z"/><path class="st1" d="M639.5 77.1c0-.4.3-.7.7-.7h8.1c4.5 0 8.2 3.7 8.2 8.1 0 4.5-3.7 8.2-8.1 8.2h-6v8.6c0 .4-.3.7-.7.7h-1.4c-.4 0-.7-.3-.7-.7v-24.2zm8.6 12.9c3 0 5.6-2.4 5.6-5.6 0-3-2.6-5.2-5.6-5.2h-5.8v10.8h5.8z"/><path class="st1" d="M674.4 76c7.3 0 13.2 5.9 13.2 13.2 0 7.3-5.8 13.1-13.2 13.1-7.3 0-13.1-5.8-13.1-13.1s5.8-13.2 13.1-13.2zm0 23.8c5.8 0 10.6-4.7 10.6-10.6 0-5.8-4.8-10.6-10.6-10.6s-10.6 4.8-10.6 10.6 4.8 10.6 10.6 10.6z"/><path class="st1" d="M693.3 98.1c.2-.2.4-.5.5-.7.4-.5.8-.8 1.3-.3.3.2 2.9 2.8 6.2 2.8 3 0 4.9-1.9 4.9-4 0-2.5-2.2-4-6.4-5.8-4-1.8-6.4-3.4-6.4-7.6 0-2.5 2-6.5 7.8-6.5 3.6 0 6.2 1.9 6.2 1.9.2.1.7.5.2 1.2l-.4.7c-.3.5-.7.7-1.3.3-.3-.1-2.6-1.7-4.8-1.7-3.9 0-5 2.5-5 4 0 2.4 1.9 3.9 4.9 5.2 4.9 2 8.1 3.9 8.1 8.1 0 3.8-3.6 6.6-7.9 6.6-4.3 0-7.2-2.5-7.7-3-.3-.2-.6-.5-.2-1.2z"/><path class="st1" d="M727.5 76c7.3 0 13.2 5.9 13.2 13.2 0 7.3-5.8 13.1-13.2 13.1-7.3 0-13.1-5.8-13.1-13.1s5.8-13.2 13.1-13.2zm0 23.8c5.8 0 10.6-4.7 10.6-10.6 0-5.8-4.8-10.6-10.6-10.6s-10.6 4.8-10.6 10.6 4.8 10.6 10.6 10.6z"/></svg>