<?xml version="1.0" encoding="utf-8"?>
<!-- Generator: Adobe Illustrator 15.0.0, SVG Export Plug-In . SVG Version: 6.00 Build 0)  -->
<!DOCTYPE svg PUBLIC "-//W3C//DTD SVG 1.1//EN" "http://www.w3.org/Graphics/SVG/1.1/DTD/svg11.dtd">
<svg version="1.1" id="Layer_1" xmlns="http://www.w3.org/2000/svg" xmlns:xlink="http://www.w3.org/1999/xlink" x="0px" y="0px"
	 width="744.3px" height="115.6px" viewBox="0 0 744.3 115.6" style="enable-background:new 0 0 744.3 115.6;" xml:space="preserve"
	>
<style type="text/css">
<![CDATA[
	.st0{opacity:0.3;clip-path:url(#SVGID_4_);fill:#FFFFFF;}
	.st1{fill:#B7B7B7;}
	.st2{fill:#91D849;}
	.st3{clip-path:url(#SVGID_2_);fill:#8FB7F7;}
	.st4{opacity:0.37;fill:#FFFFFF;}
]]>
</style>
<g>
	<g>
		<g>
			<defs>
				<path id="SVGID_1_" d="M107.1,53.5c0,29.6-24,53.5-53.5,53.5C24,107.1,0,83.1,0,53.5C0,24,24,0,53.5,0
					C83.1,0,107.1,24,107.1,53.5z"/>
			</defs>
			<clipPath id="SVGID_2_">
				<use xlink:href="#SVGID_1_"  style="overflow:visible;"/>
			</clipPath>
			<path class="st3" d="M92.6,61.6c-4.5,21.6-25.6,35.5-47.2,31C23.9,88.2,10,67,14.4,45.5C18.9,23.9,40,10,61.6,14.4
				C83.2,18.9,97.1,40,92.6,61.6z"/>
			<polygon class="st3" points="53.5,-15.8 66.8,21.5 102.6,4.5 85.6,40.3 122.9,53.5 85.6,66.8 102.6,102.6 66.8,85.6 53.5,122.9 
				40.3,85.6 4.5,102.6 21.5,66.8 -15.8,53.5 21.5,40.3 4.5,4.5 40.3,21.5 			"/>
		</g>
		<g>
			<defs>
				<path id="SVGID_3_" d="M106.8,59.3c0.2-1.9,0.3-3.8,0.3-5.7c0-1.9-0.1-3.8-0.3-5.7l-14.9-5.3c-0.8-2.9-2-5.7-3.4-8.3L95.2,20
					c-2.4-3-5.1-5.7-8.1-8.1l-14.2,6.8c-2.6-1.4-5.4-2.6-8.3-3.4L59.3,0.3C57.4,0.1,55.5,0,53.5,0c-1.9,0-3.8,0.1-5.7,0.3l-5.3,14.9
					c-2.9,0.8-5.7,2-8.3,3.4L20,11.9c-3,2.4-5.7,5.1-8.1,8.1l6.8,14.2c-1.4,2.6-2.6,5.4-3.4,8.3L0.3,47.8C0.1,49.7,0,51.6,0,53.5
					c0,1.9,0.1,3.8,0.3,5.7l14.9,5.3c0.8,2.9,2,5.7,3.5,8.3l-6.8,14.3c2.4,3,5.1,5.7,8.1,8.1l14.2-6.8c2.6,1.4,5.4,2.6,8.3,3.4
					l5.3,14.9c1.9,0.2,3.8,0.3,5.7,0.3c1.9,0,3.8-0.1,5.7-0.3l5.3-14.9c2.9-0.8,5.7-2,8.3-3.5l14.3,6.8c3-2.4,5.7-5.1,8.1-8.1
					l-6.8-14.2c1.4-2.6,2.6-5.4,3.4-8.3L106.8,59.3z"/>
			</defs>
			<clipPath id="SVGID_4_">
				<use xlink:href="#SVGID_3_"  style="overflow:visible;"/>
			</clipPath>
			<path class="st0" d="M107.1,53.5c0,19.1-14.9,34.6-33.3,34.6c-18.4,0-33.3-15.4-33.3-34.5C40.4,34.5,55.3,19,73.7,19
				C92.1,19,107.1,34.4,107.1,53.5z"/>
		</g>
		<g>
			<path class="st1" d="M173,12c7.5,0,13.1,2.3,18.2,7c0.7,0.6,0.7,1.5,0.1,2.1l-5.9,6.1c-0.5,0.5-1.4,0.5-1.9,0
				c-2.8-2.5-6.5-3.8-10.2-3.8c-8.5,0-14.7,7.1-14.7,15.5c0,8.3,6.3,15.3,14.8,15.3c3.5,0,7.4-1.3,10.1-3.6c0.5-0.5,1.5-0.5,2,0.1
				l5.9,6.2c0.5,0.5,0.5,1.5-0.1,2c-5.1,5-11.6,7.3-18.3,7.3c-15,0-27.2-12-27.2-27S158,12,173,12z"/>
			<path class="st2" d="M193.6,63.4l23.5-50.6c0.2-0.5,0.8-0.8,1.3-0.8h0.8c0.5,0,1.1,0.4,1.3,0.8L244,63.4c0.5,1-0.2,2-1.3,2h-8.3
				c-1.4,0-2-0.5-2.6-1.9l-2.7-5.9h-20.5l-2.7,6c-0.4,0.9-1.2,1.8-2.7,1.8h-8.3C193.7,65.4,193.1,64.4,193.6,63.4z M224.5,47.3
				l-5.7-12.4h-0.1L213,47.3H224.5z"/>
			<path class="st2" d="M250.1,14.1c0-0.8,0.6-1.4,1.4-1.4h9c0.8,0,1.4,0.7,1.4,1.4v40.2h17.9c0.8,0,1.4,0.7,1.4,1.4v8.2
				c0,0.8-0.6,1.4-1.4,1.4h-28.3c-0.8,0-1.4-0.7-1.4-1.4V14.1z"/>
			<path class="st2" d="M288.6,14.1c0-0.8,0.6-1.4,1.4-1.4h9c0.8,0,1.4,0.7,1.4,1.4v40.2h17.9c0.8,0,1.4,0.7,1.4,1.4v8.2
				c0,0.8-0.6,1.4-1.4,1.4H290c-0.8,0-1.4-0.7-1.4-1.4V14.1z"/>
			<path class="st2" d="M327,14.1c0-0.8,0.7-1.4,1.4-1.4h9c0.8,0,1.4,0.7,1.4,1.4v49.8c0,0.8-0.7,1.4-1.4,1.4h-9
				c-0.8,0-1.4-0.7-1.4-1.4V14.1z"/>
			<path class="st2" d="M351.8,13.3c0-0.8,0.7-1.4,1.4-1.4h1.9l30,28.9h0.1V14.1c0-0.8,0.6-1.4,1.4-1.4h9c0.8,0,1.4,0.7,1.4,1.4
				v50.6c0,0.8-0.7,1.4-1.4,1.4h-1.2c-0.2,0-0.8-0.2-1-0.4l-29.7-29.9h-0.1v28.1c0,0.8-0.6,1.4-1.4,1.4h-9c-0.8,0-1.4-0.7-1.4-1.4
				L351.8,13.3z"/>
			<path class="st1" d="M403.2,63.4l23.5-50.6c0.2-0.5,0.8-0.8,1.3-0.8h0.8c0.5,0,1.1,0.4,1.3,0.8l23.5,50.6c0.5,1-0.2,2-1.3,2H444
				c-1.4,0-2-0.5-2.6-1.9l-2.7-5.9h-20.5l-2.7,6c-0.4,0.9-1.2,1.8-2.7,1.8h-8.3C403.4,65.4,402.8,64.4,403.2,63.4z M434.1,47.3
				l-5.7-12.4h-0.1l-5.6,12.4H434.1z"/>
			<path class="st1" d="M459.8,14.1c0-0.8,0.6-1.4,1.4-1.4h22.5c9,0,16.4,7.3,16.4,16.2c0,6.9-4.6,12.5-11.1,15.1l10.3,19.1
				c0.5,1,0,2.2-1.3,2.2h-10c-0.6,0-1.1-0.4-1.2-0.7l-10-19.9h-5.2v19.2c0,0.8-0.7,1.4-1.4,1.4h-9c-0.8,0-1.4-0.7-1.4-1.4V14.1z
				 M482.7,35.2c3.1,0,5.7-2.9,5.7-6s-2.6-5.7-5.7-5.7h-11.1v11.7H482.7z"/>
			<path class="st1" d="M519.7,40l-16.6-25.1c-0.6-1,0-2.2,1.2-2.2h9.8c0.6,0,1,0.4,1.2,0.7l10.5,15.4l10.5-15.4
				c0.2-0.3,0.5-0.7,1.2-0.7h9.8c1.2,0,1.8,1.2,1.2,2.2l-16.9,25v24c0,0.8-0.7,1.4-1.4,1.4h-9c-0.8,0-1.4-0.7-1.4-1.4V40z"/>
			<path class="st1" d="M564.2,63.4l23.5-50.6c0.2-0.5,0.8-0.8,1.3-0.8h0.8c0.5,0,1.1,0.4,1.3,0.8l23.5,50.6c0.5,1-0.2,2-1.3,2H605
				c-1.4,0-2-0.5-2.6-1.9l-2.7-5.9h-20.5l-2.7,6c-0.4,0.9-1.2,1.8-2.7,1.8h-8.3C564.4,65.4,563.8,64.4,564.2,63.4z M595.1,47.3
				l-5.7-12.4h-0.1l-5.6,12.4H595.1z"/>
			<path class="st1" d="M620.8,14.1c0-0.8,0.6-1.4,1.4-1.4h22.5c9,0,16.4,7.3,16.4,16.2c0,6.9-4.6,12.5-11.1,15.1l10.3,19.1
				c0.5,1,0,2.2-1.3,2.2h-10c-0.6,0-1.1-0.4-1.2-0.7l-10-19.9h-5.2v19.2c0,0.8-0.7,1.4-1.4,1.4h-9c-0.8,0-1.4-0.7-1.4-1.4V14.1z
				 M643.7,35.2c3.1,0,5.7-2.9,5.7-6s-2.6-5.7-5.7-5.7h-11.1v11.7H643.7z"/>
			<path class="st1" d="M678,23.8h-10.8c-0.8,0-1.4-0.7-1.4-1.4v-8.2c0-0.8,0.6-1.4,1.4-1.4h33.4c0.8,0,1.4,0.7,1.4,1.4v8.2
				c0,0.8-0.6,1.4-1.4,1.4h-10.8v40.2c0,0.8-0.7,1.4-1.4,1.4h-9c-0.8,0-1.4-0.7-1.4-1.4V23.8z"/>
			<path class="st1" d="M706.6,58.2l3.5-6.2c0.6-1,2-0.8,2.6-0.5c0.3,0.2,5.7,4.1,10.7,4.1c3,0,5.2-1.9,5.2-4.5
				c0-3.2-2.6-5.6-7.7-7.6c-6.5-2.6-14.6-7.6-14.6-16.6c0-7.4,5.8-15,17.4-15c7.8,0,13.8,4,16.1,5.6c0.9,0.5,0.8,1.9,0.5,2.4
				l-3.8,5.8c-0.5,0.8-1.9,1.5-2.6,1c-0.7-0.4-6.2-4.5-10.8-4.5c-2.7,0-4.7,1.8-4.7,3.8c0,2.8,2.3,4.9,8.2,7.3
				c5.9,2.3,15.2,6.9,15.2,17.2c0,7.7-6.7,15.6-17.8,15.6c-9.8,0-15.2-4.1-16.9-5.8C706.2,59.6,706,59.3,706.6,58.2z"/>
		</g>
		<g>
			<polygon class="st2" points="65.3,115.6 105.2,17.6 170.1,101.2 			"/>
			<polygon class="st4" points="92.5,111.9 111.4,65.4 142.2,105 			"/>
		</g>
	</g>
	<g>
		<path class="st1" d="M401.8,77.1c0-0.4,0.3-0.7,0.7-0.7h1.1c0.4,0,0.7,0.3,0.7,0.7v10.8c0,0,1.5-0.9,3.9-0.9c4.4,0,7,3.4,7,7.6
			c0,4.2-2.9,7.7-6.6,7.7c-2.7,0-4.5-1.9-4.5-1.9l-0.2,1c-0.1,0.3-0.3,0.6-0.6,0.6h-0.8c-0.4,0-0.7-0.3-0.7-0.7V77.1z M408.4,100
			c2.7,0,4.3-2.5,4.3-5.4c0-2.9-1.6-5.2-4.8-5.2c-2,0-3.5,0.9-3.5,0.9v7.3C404.4,97.6,405.7,100,408.4,100z"/>
		<path class="st1" d="M419.1,88.2c-0.2-0.5,0-0.8,0.5-0.8h1.6c0.3,0,0.5,0.2,0.6,0.4l5.4,11.2h0l5.1-11.2c0.1-0.2,0.4-0.4,0.6-0.4
			h1.4c0.5,0,0.8,0.4,0.5,0.8l-11.2,24.3c-0.1,0.2-0.4,0.4-0.6,0.4h-1.4c-0.5,0-0.8-0.4-0.6-0.9l4.7-10.1L419.1,88.2z"/>
		<path class="st1" d="M447.6,101l11.1-24.6c0.1-0.2,0.3-0.4,0.6-0.4h0.4c0.3,0,0.5,0.2,0.6,0.4l11,24.6c0.2,0.5-0.1,0.9-0.6,0.9
			h-1.5c-0.3,0-0.5-0.2-0.6-0.4l-2.7-6h-13l-2.7,6c-0.1,0.2-0.3,0.4-0.6,0.4h-1.5C447.7,102,447.4,101.5,447.6,101z M465,93.3
			c-1.8-4-3.5-8-5.3-12h-0.3l-5.3,12H465z"/>
		<path class="st1" d="M477.2,77.1c0-0.4,0.3-0.7,0.7-0.7h1.4c0.4,0,0.7,0.3,0.7,0.7v22.4h10.5c0.4,0,0.7,0.3,0.7,0.7v1.1
			c0,0.4-0.3,0.7-0.7,0.7h-12.6c-0.4,0-0.7-0.3-0.7-0.7V77.1z"/>
		<path class="st1" d="M496.9,77.1c0-0.4,0.3-0.7,0.7-0.7h1.4c0.4,0,0.7,0.3,0.7,0.7v22.4h10.5c0.4,0,0.7,0.3,0.7,0.7v1.1
			c0,0.4-0.3,0.7-0.7,0.7h-12.6c-0.4,0-0.7-0.3-0.7-0.7V77.1z"/>
		<path class="st1" d="M516.7,77.1c0-0.4,0.3-0.7,0.7-0.7h1.5c0.4,0,0.7,0.3,0.7,0.7v24.2c0,0.4-0.3,0.7-0.7,0.7h-1.5
			c-0.4,0-0.7-0.3-0.7-0.7V77.1z"/>
		<path class="st1" d="M528.8,76.7c0-0.4,0.3-0.7,0.7-0.7h0.9l16.5,20.5c0,0,0,0,0.1,0V77.1c0-0.4,0.3-0.7,0.7-0.7h1.3
			c0.4,0,0.7,0.3,0.7,0.7v24.6c0,0.4-0.3,0.7-0.7,0.7h-0.7l-16.8-20.9h0v19.9c0,0.4-0.3,0.7-0.7,0.7h-1.3c-0.4,0-0.7-0.3-0.7-0.7
			V76.7z"/>
		<path class="st1" d="M568.8,77.1c0-0.4,0.3-0.7,0.7-0.7h9.5c4.4,0,8,3.4,8,7.8c0,3.4-2.2,6.2-5.4,7.5l5,9.3c0.3,0.5,0,1.1-0.6,1.1
			h-1.9c-0.3,0-0.5-0.2-0.6-0.3l-4.9-9.7h-7v9.3c0,0.4-0.3,0.7-0.7,0.7h-1.4c-0.4,0-0.7-0.3-0.7-0.7V77.1z M578.8,89.6
			c2.8,0,5.3-2.3,5.3-5.3c0-2.8-2.4-5.2-5.3-5.2h-7.1v10.5H578.8z"/>
		<path class="st1" d="M594.8,77.1c0-0.4,0.3-0.7,0.7-0.7h14.4c0.4,0,0.7,0.3,0.7,0.7v1.1c0,0.4-0.3,0.7-0.7,0.7h-12.3v8.9h10.5
			c0.4,0,0.7,0.3,0.7,0.7v1.1c0,0.4-0.3,0.7-0.7,0.7h-10.5v9.3h12.3c0.4,0,0.7,0.3,0.7,0.7v1.1c0,0.4-0.3,0.7-0.7,0.7h-14.4
			c-0.4,0-0.7-0.3-0.7-0.7V77.1z"/>
		<path class="st1" d="M616.6,98.1c0.2-0.2,0.4-0.5,0.5-0.7c0.4-0.5,0.8-0.8,1.3-0.3c0.3,0.2,2.9,2.8,6.2,2.8c3,0,4.9-1.9,4.9-4
			c0-2.5-2.2-4-6.4-5.8c-4-1.8-6.4-3.4-6.4-7.6c0-2.5,2-6.5,7.8-6.5c3.6,0,6.2,1.9,6.2,1.9c0.2,0.1,0.7,0.5,0.2,1.2
			c-0.1,0.2-0.3,0.5-0.4,0.7c-0.3,0.5-0.7,0.7-1.3,0.3c-0.3-0.1-2.6-1.7-4.8-1.7c-3.9,0-5,2.5-5,4c0,2.4,1.9,3.9,4.9,5.2
			c4.9,2,8.1,3.9,8.1,8.1c0,3.8-3.6,6.6-7.9,6.6c-4.3,0-7.2-2.5-7.7-3C616.5,99.1,616.2,98.8,616.6,98.1z"/>
		<path class="st1" d="M639.5,77.1c0-0.4,0.3-0.7,0.7-0.7h8.1c4.5,0,8.2,3.7,8.2,8.1c0,4.5-3.7,8.2-8.1,8.2h-6v8.6
			c0,0.4-0.3,0.7-0.7,0.7h-1.4c-0.4,0-0.7-0.3-0.7-0.7V77.1z M648.1,90c3,0,5.6-2.4,5.6-5.6c0-3-2.6-5.2-5.6-5.2h-5.8V90H648.1z"/>
		<path class="st1" d="M674.4,76c7.3,0,13.2,5.9,13.2,13.2c0,7.3-5.8,13.1-13.2,13.1c-7.3,0-13.1-5.8-13.1-13.1
			C661.3,81.9,667.1,76,674.4,76z M674.4,99.8c5.8,0,10.6-4.7,10.6-10.6c0-5.8-4.8-10.6-10.6-10.6c-5.8,0-10.6,4.8-10.6,10.6
			C663.8,95,668.6,99.8,674.4,99.8z"/>
		<path class="st1" d="M693.3,98.1c0.2-0.2,0.4-0.5,0.5-0.7c0.4-0.5,0.8-0.8,1.3-0.3c0.3,0.2,2.9,2.8,6.2,2.8c3,0,4.9-1.9,4.9-4
			c0-2.5-2.2-4-6.4-5.8c-4-1.8-6.4-3.4-6.4-7.6c0-2.5,2-6.5,7.8-6.5c3.6,0,6.2,1.9,6.2,1.9c0.2,0.1,0.7,0.5,0.2,1.2
			c-0.1,0.2-0.3,0.5-0.4,0.7c-0.3,0.5-0.7,0.7-1.3,0.3c-0.3-0.1-2.6-1.7-4.8-1.7c-3.9,0-5,2.5-5,4c0,2.4,1.9,3.9,4.9,5.2
			c4.9,2,8.1,3.9,8.1,8.1c0,3.8-3.6,6.6-7.9,6.6c-4.3,0-7.2-2.5-7.7-3C693.2,99.1,692.9,98.8,693.3,98.1z"/>
		<path class="st1" d="M727.5,76c7.3,0,13.2,5.9,13.2,13.2c0,7.3-5.8,13.1-13.2,13.1c-7.3,0-13.1-5.8-13.1-13.1
			C714.4,81.9,720.2,76,727.5,76z M727.5,99.8c5.8,0,10.6-4.7,10.6-10.6c0-5.8-4.8-10.6-10.6-10.6c-5.8,0-10.6,4.8-10.6,10.6
			C716.9,95,721.7,99.8,727.5,99.8z"/>
	</g>
</g>
</svg>
